<svg xmlns="http://www.w3.org/2000/svg" height="1200" width="1600" version="1.1" xmlns:xlink="http://www.w3.org/1999/xlink" xmlns:svgjs="http://svgjs.com/svgjs"><rect fill="#BFE7FF" width="1600" height="1200"></rect><g><path d="M1215.4 196.31H912.37V550.86H1215.4V196.31Z" fill="#f3dad2" opacity="1" stroke-width="4" stroke="none"></path><path d="M970.45 261.97H1033.08C1038.33 261.97 1042.67 266.32 1042.67 271.57 1042.67 276.82 1038.33 281.16 1033.08 281.16H970.45C965.2 281.16 960.85 276.82 960.85 271.57 960.85 266.32 965.2 261.97 970.45 261.97Z" fill="#ffa805" opacity="1" stroke-width="4" stroke="none"></path><path d="M1071.46 261.97H1093.68C1098.93 261.97 1103.28 266.32 1103.28 271.57 1103.28 276.82 1098.93 281.16 1093.68 281.16H1071.46C1066.21 281.16 1061.86 276.82 1061.86 271.57 1061.86 266.32 1066.21 261.97 1071.46 261.97Z" fill="#346afe" opacity="1" stroke-width="4" stroke="none"></path><path d="M1131.06 261.97H1153.28C1158.53 261.97 1162.87 266.32 1162.87 271.57 1162.87 276.82 1158.53 281.16 1153.28 281.16H1131.06C1125.8 281.16 1121.46 276.82 1121.46 271.57 1121.46 266.32 1125.8 261.97 1131.06 261.97Z" fill="#050505" opacity="1" stroke-width="4" stroke="none"></path><path d="M970.45 415H1033.08C1038.33 415 1042.67 419.35 1042.67 424.6 1042.67 429.85 1038.33 434.2 1033.08 434.2H970.45C965.2 434.2 960.85 429.85 960.85 424.6 960.85 419.35 965.2 415 970.45 415Z" fill="#050505" opacity="1" stroke-width="4" stroke="none"></path><path d="M1071.46 415H1153.28C1158.53 415 1162.87 419.35 1162.87 424.6 1162.87 429.85 1158.53 434.2 1153.28 434.2H1071.46C1066.21 434.2 1061.86 429.85 1061.86 424.6 1061.86 419.35 1066.21 415 1071.46 415Z" fill="#f0f0f0" opacity="1" stroke-width="4" stroke="none"></path><path d="M970.45 363.99H1067.42C1072.67 363.99 1077.02 368.34 1077.02 373.59 1077.02 378.84 1072.67 383.19 1067.42 383.19H970.45C965.2 383.19 960.85 378.84 960.85 373.59 960.85 368.34 965.2 363.99 970.45 363.99Z" fill="#346afe" opacity="1" stroke-width="4" stroke="none"></path><path d="M1031.05 312.98H1093.68C1098.93 312.98 1103.28 317.33 1103.28 322.58 1103.28 327.83 1098.93 332.18 1093.68 332.18H1031.05C1025.8 332.18 1021.46 327.83 1021.46 322.58 1021.46 317.33 1025.8 312.98 1031.05 312.98Z" fill="#f0f0f0" opacity="1" stroke-width="4" stroke="none"></path><path d="M970.45 312.98H992.67C997.92 312.98 1002.27 317.33 1002.27 322.58 1002.27 327.83 997.92 332.18 992.67 332.18H970.45C965.2 332.18 960.85 327.83 960.85 322.58 960.85 317.33 965.2 312.98 970.45 312.98Z" fill="#f0f0f0" opacity="1" stroke-width="4" stroke="none"></path><path d="M1131.06 312.98H1153.28C1158.53 312.98 1162.87 317.33 1162.87 322.58 1162.87 327.83 1158.53 332.18 1153.28 332.18H1131.06C1125.8 332.18 1121.46 327.83 1121.46 322.58 1121.46 317.33 1125.8 312.98 1131.06 312.98Z" fill="#f0f0f0" opacity="1" stroke-width="4" stroke="none"></path><path d="M1031.05 466.01H1153.28C1158.53 466.01 1162.87 470.36 1162.87 475.61 1162.87 480.86 1158.53 485.21 1153.28 485.21H1031.05C1025.8 485.21 1021.46 480.86 1021.46 475.61 1021.46 470.36 1025.8 466.01 1031.05 466.01Z" fill="#ffa805" opacity="1" stroke-width="4" stroke="none"></path><path d="M970.45 466.01H992.67C997.92 466.01 1002.27 470.36 1002.27 475.61 1002.27 480.86 997.92 485.21 992.67 485.21H970.45C965.2 485.21 960.85 480.86 960.85 475.61 960.85 470.36 965.2 466.01 970.45 466.01Z" fill="#346afe" opacity="1" stroke-width="4" stroke="none"></path></g><g><path d="M471.87 1031.13V644.71L487.34 644.62V1031.13H471.87Z" fill="#050505" opacity="1" stroke-width="4" stroke="none"></path><path d="M940.32 1031.13V644.71L955.79 644.62V1031.13H940.32Z" fill="#050505" opacity="1" stroke-width="4" stroke="none"></path><path d="M940.32 683.69V644.71L955.79 644.62V673.5L940.32 683.69Z" fill="#000000" opacity="0.2" stroke-width="4" stroke="none"></path><path d="M471.87 683.69V644.71L487.34 644.62V673.5L471.87 683.69Z" fill="#000000" opacity="0.2" stroke-width="4" stroke="none"></path><path d="M955.79 649.99H940.32" stroke="#000000" stroke-width="4" stroke-linecap="round" stroke-linejoin="round" opacity="1" fill="none"></path><path d="M487.34 649.99H471.87" stroke="#000000" stroke-width="4" stroke-linecap="round" stroke-linejoin="round" opacity="1" fill="none"></path><path d="M442.76 648.41V625.18H984.91L984.97 648.41H442.76Z" fill="#050505" opacity="1" stroke-width="4" stroke="none"></path></g><g><path d="M978.91 953.1H1150.39L1139.09 881.02C1137.76 872.08 1134.78 863.46 1130.26 855.65L1128 866.74C1121.84 896.93 1095.35 918.6 1064.54 918.6 1033.74 918.6 1007.25 896.93 1001.09 866.74L998.83 855.65C994.41 863.56 991.44 872.08 990 881.02L978.91 953.1Z" fill="#ffa805" opacity="1" stroke-width="4" stroke="none"></path><path d="M1001.19 866.74C1007.35 902.79 1024.91 932.67 1064.54 932.67 1104.18 932.67 1121.84 902.89 1128 866.74L1128.62 863.15C1127.8 861.3 1126.87 859.45 1125.85 857.71L1123.69 867.87C1117.94 895.6 1093.19 915.62 1064.44 915.62 1035.69 915.62 1010.94 895.7 1005.19 867.87L1003.04 857.71C1002.01 859.45 1001.19 861.2 1000.37 863.05L1001.19 866.74Z" fill="#000000" opacity="0.25" stroke-width="4" stroke="none"></path><path d="M1062.7 791.58H1066.5C1078.71 791.58 1088.57 801.44 1088.57 813.66V838.61C1088.57 850.83 1078.71 860.69 1066.5 860.69H1062.7C1050.48 860.69 1040.62 850.83 1040.62 838.61V813.66C1040.62 801.44 1050.48 791.58 1062.7 791.58Z" stroke="#000000" stroke-width="4" stroke-linecap="round" stroke-linejoin="round" opacity="1" fill="none"></path><path d="M1150.28 953.1H978.91L972.34 995.61C969.67 1012.96 981.47 1029.09 998.83 1031.75 1000.37 1031.96 1002.01 1032.17 1003.65 1032.17H1125.64C1143.2 1032.17 1157.37 1018 1157.37 1000.44 1157.37 998.79 1157.27 997.15 1156.96 995.51L1150.28 953.1Z" fill="#346afe" opacity="1" stroke-width="4" stroke="none"></path><path d="M978.19 953.31H1151" stroke="#3b4b78" stroke-width="4" stroke-linecap="round" stroke-linejoin="round" opacity="1" fill="none"></path><path d="M1064.54 918.5C1095.35 918.5 1121.84 896.83 1128 866.64L1130.26 855.55C1116.91 831.83 1091.76 817.15 1064.54 817.05 1037.33 817.05 1012.18 831.73 998.83 855.55L1001.09 866.64C1007.35 896.83 1033.84 918.5 1064.54 918.5Z" fill="#346afe" opacity="1" stroke-width="4" stroke="none"></path><path d="M1040.62 869.52H1088.57" stroke="#000000" stroke-width="4" stroke-linecap="round" stroke-linejoin="round" opacity="1" fill="none"></path></g><g><path d="M769.88 612.71L804.28 507.06C805.51 503.11 805.22 499.54 803.25 496.81 801.46 494.27 798.46 492.96 794.88 492.96H643.08C635.28 492.96 627.01 499.25 624.47 506.96L590.07 612.71 769.88 612.71Z" fill="#346afe" opacity="1" stroke-width="4" stroke="none"></path><path d="M756.35 611.67L788.59 512.7H634.81L602.57 611.67H756.35Z" fill="#f0f0f0" opacity="1" stroke-width="4" stroke="none"></path><path d="M706.34 506.96C708.97 506.77 711.23 505.08 712.07 502.64 712.45 501.7 712.36 500.57 711.79 499.72 711.23 498.97 710.29 498.6 709.44 498.69 706.81 498.88 704.55 500.57 703.71 503.01 703.33 503.95 703.43 505.08 703.99 505.93 704.55 506.68 705.4 507.06 706.34 506.96Z" fill="#757679" opacity="1" stroke-width="4" stroke="none"></path><path d="M664.07 587.68C654.21 576.3 658.5 556.44 673.63 543.32 688.77 530.19 709.04 528.77 718.91 540.15 728.77 551.53 724.48 571.39 709.34 584.51 694.2 597.63 673.93 599.05 664.07 587.68Z" fill="#050505" opacity="1" stroke-width="4" stroke="none"></path><path d="M477.18 611.3L653.98 611.3H770.07L768.75 615.53C766.97 621.17 761.61 625.02 755.69 625.02H663.85 487.05C485.92 625.02 484.7 624.83 483.57 624.46 478.21 622.58 475.3 616.75 477.18 611.3Z" fill="#346afe" opacity="1" stroke-width="4" stroke="none"></path><path d="M755.69 625.02C767.81 625.12 770.35 611.39 770.35 611.39L653.98 611.3C653.61 612.33 653.42 613.46 653.42 614.49 653.42 620.23 658.03 624.93 663.85 625.02H755.69Z" fill="#515151" opacity="1" stroke-width="4" stroke="none"></path><path d="M770.35 611.3L590.44 611.3" stroke="#515151" stroke-width="4" stroke-linecap="round" stroke-linejoin="round" opacity="1" fill="none"></path></g><g><path d="M469.48 479.78C460.13 479.78 455.46 476.8 455.46 470.85 455.46 463.84 454.71 452.69 453.86 439.62 451.95 410.61 449.51 374.6 453.33 358.13 459.07 334.02 484.14 325.41 505.6 325.41 513.78 325.41 522.17 326.58 529.72 328.92 552.98 335.93 557.55 354.41 562.76 375.77 563.39 378.53 564.14 381.29 564.78 384.06 565.94 384.27 573.7 385.75 574.34 388.94 575.19 393.09 569.66 398.4 568.92 399.14 572.85 421.88 569.13 436.11 557.13 443.87 551.39 447.59 545.55 449.39 539.17 449.39 533.97 449.39 528.23 448.12 524.09 446.95L525.04 465.54 524.94 465.65C524.4 465.86 489.45 479.78 469.48 479.78Z" fill="#ffb98a" opacity="1" stroke-width="4" stroke="none"></path><path d="M607.8 530.88C607.48 530.13 575.29 457.47 572.42 451.84 571.04 449.07 569.56 446.2 568.71 443.23 568.39 441.85 567.96 440.15 568.6 438.87 569.56 436.75 572.42 437.49 574.12 438.02 579.86 439.94 584.64 444.08 589.32 447.8 591.12 449.18 592.82 450.67 594.73 451.94 596.22 452.9 598.13 454.07 599.73 452.79 601.85 451.09 600.47 448.01 599.3 446.2 597.5 443.44 594.95 441.21 592.4 439.3 588.47 436.43 584.54 434.52 581.03 432.82 575.93 430.38 572.32 428.68 572.32 425.38 572.32 417.73 587.83 420.07 592.18 420.6 600.9 421.77 609.61 424.11 617.26 428.57 625.12 433.14 631.71 439.83 635.74 448.01 645.62 467.88 647.43 471.28 659.86 494.12L660.18 498.16 607.8 531.3V530.88 530.88Z" fill="#ffb98a" opacity="1" stroke-width="4" stroke="none"></path><path d="M421.57 686.73C421.14 686.52 374.5 667.08 367.49 635.31 364.2 620.65 366.53 599.61 374.18 574.54 380.56 553.4 390.76 530.03 401.91 510.27 421.88 475.21 451.84 464.05 454.39 463.2L454.5 454.6H524.51L525.25 462.57C563.71 464.27 590.48 491.68 590.7 491.89 590.8 491.99 603.45 505.7 611.84 516.22L659.75 493.69 659.86 493.91C674.73 521 705.22 586.76 668.57 612.79 660.6 618.42 651.15 621.29 640.63 621.29 606.63 621.29 570.19 591.54 566.58 588.56L555.53 653.9 434.84 654.01C429.43 664.74 424.96 674.94 421.99 686.52L421.88 686.73H421.57Z" fill="#ffa805" opacity="1" stroke-width="4" stroke="none"></path><path d="M421.57 686.73C413.07 683.01 404.89 678.44 397.34 673.13L397.02 672.92 397.13 672.81C406.9 663.99 409.35 651.56 411.79 639.67 414.45 626.7 416.89 614.49 427.83 606.73L428.15 606.52 434.31 652.73 435.91 654.33C430.49 665.16 425.07 674.94 421.99 686.73L421.88 686.94 421.57 686.73Z" fill="#3a3a3a" opacity="0.2" stroke-width="4" stroke="none"></path><path d="M518.24 654.75L551.18 575.71 566.69 588.56 555.53 653.9 518.24 654.75Z" fill="#3a3a3a" opacity="0.2" stroke-width="4" stroke="none"></path><path d="M523.45 966.99V966.78C524.72 949.99 526.95 932.99 530.03 916.42L535.24 900.8 639.25 902.5 636.7 916.63C633.83 926.19 630.64 940.53 630.01 946.59L603.87 994.08 523.45 966.99Z" fill="#ffb98a" opacity="1" stroke-width="4" stroke="none"></path><path d="M523.45 1012.56L520.79 1009.48C520.79 1001.41 521.75 979.42 521.96 975.91 522.39 968.48 523.87 961.14 524.51 955.09 550.11 959.34 567.96 965.71 578.9 970.49 589 974.85 596.36 979.72 596.22 979.63L592.4 955.83C592.29 955.09 592.18 954.24 592.18 953.5 592.18 945.53 598.67 939.15 606.53 939.15H631.17C629.16 949.14 630.96 960.72 634.57 970.17 637.76 978.46 643.5 985.15 649.87 991.1 650.93 992.06 652 993.12 653.17 994.08 658.37 998.86 663.26 1003.32 666.87 1009.27L666.45 1013.41 523.45 1012.56Z" fill="#f0f0f0" opacity="1" stroke-width="4" stroke="none"></path><path d="M529.72 916.95C538.22 872.54 552.98 829.62 573.17 789.14L551.18 788.08C518.56 788.08 493.81 778.73 479.57 760.99 467.89 746.44 464.17 726.57 468.95 705.11 476.28 673.56 487.43 671.11 487.43 671.11 493.06 671.75 626.39 673.77 667.19 722.21 694.6 754.72 669.63 823.88 649.55 879.45 644.56 893.15 639.99 906.01 636.59 917.16L529.72 916.95Z" fill="#346afe" opacity="1" stroke-width="4" stroke="none"></path><path d="M642.44 898.25C642.33 898.14 626.82 888.37 608.33 850.23 598.35 829.73 583.26 825.48 572.42 825.48 563.08 825.48 555.85 828.66 555.74 828.66L555.32 828.88 555.53 828.35C560.95 814.53 566.9 801.15 573.38 788.4 573.38 788.4 576.04 782.56 580.39 774.16 589.74 756.53 600.47 740.17 615.34 740.17 625.01 740.17 635.32 746.86 647 760.78 649.24 763.43 651.36 765.88 653.38 768.11 669.42 786.49 677.49 795.62 665.06 834.83 660.28 849.91 654.97 864.47 649.87 878.81 647.43 885.5 645.09 891.98 642.97 898.14L642.86 898.36 642.44 898.25Z" fill="#000a24" opacity="0.2" stroke-width="4" stroke="none"></path><path d="M637.09 975.91L620.76 982.5" stroke="#000000" stroke-width="4" stroke-linecap="round" stroke-linejoin="round" opacity="1" fill="none"></path><path d="M646.4 987.84L633.19 997.8" stroke="#000000" stroke-width="4" stroke-linecap="round" stroke-linejoin="round" opacity="1" fill="none"></path><path d="M636.7 916.84H530.25" stroke="#000a24" stroke-width="4" stroke-linecap="round" stroke-linejoin="round" opacity="1" fill="none"></path><path d="M681.96 965.08L672.18 960.19 671.76 959.87C667.3 947.76 663.68 936.39 660.5 925.02V914.93L754.09 866.59 756.96 878.07C759.72 892.2 761.53 900.06 762.7 902.82L756.96 964.97 681.96 965.08Z" fill="#ffb98a" opacity="1" stroke-width="4" stroke="none"></path><path d="M660.39 925.02C643.29 860.86 643.92 830.26 644.03 790.42L490.94 790.1C463.95 790.1 443.77 783.51 431.02 770.55 420.18 759.5 414.77 743.89 415.19 724.44 415.93 683.75 434.21 653.05 434.42 652.73H555.74C556.91 652.95 674.73 675.57 706.07 707.02 730.4 732.09 736.35 765.13 744.43 810.82 745.81 818.36 747.19 826.12 748.67 834.3L749.74 839.82C752.29 853.74 754.73 866.8 756.96 877.85L660.39 925.02Z" fill="#346afe" opacity="1" stroke-width="4" stroke="none"></path><path d="M649.98 877.96C643.39 843.22 642.65 821.02 642.75 791.69" stroke="#000a24" stroke-width="4" stroke-linecap="round" stroke-linejoin="round" opacity="1" fill="none"></path><path d="M694.07 1012.25C689.82 1003.43 686.84 996.42 684.19 990.25L684.08 990.04H684.19C682.91 987.28 681.74 984.3 680.58 981.44 677.28 973.47 674.09 966.14 671.65 959.55L672.18 959.34C687.59 952.33 703.95 948.82 721.05 948.82 736.88 948.82 751.8 953.84 750.91 952.75L738.69 935.12C738.16 934.37 737.73 933.63 737.41 932.89 735.5 928.95 735.29 924.39 736.78 920.24 738.26 916.1 741.24 912.7 745.17 910.79L762.7 902.82C763.02 903.46 765.14 907.49 765.89 908.77 777.25 931.19 791.81 935.33 805.83 939.26 812.63 941.17 819 942.98 824.85 946.7L825.17 949.03 695.56 1013.41 694.07 1012.25Z" fill="#f0f0f0" opacity="1" stroke-width="4" stroke="none"></path><path d="M703.1 1029.99C699.8 1023.83 696.83 1017.98 693.86 1011.93L693.75 1011.71 824.74 946.59C834.2 952.96 838.66 963.38 838.66 963.38L703.52 1030.73 703.1 1029.99Z" fill="#000000" opacity="1" stroke-width="4" stroke="none"></path><path d="M783.57 930.55L772.68 943.51" stroke="#000000" stroke-width="4" stroke-linecap="round" stroke-linejoin="round" opacity="1" fill="none"></path><path d="M797.05 936.96L789.9 952.33" stroke="#000000" stroke-width="4" stroke-linecap="round" stroke-linejoin="round" opacity="1" fill="none"></path><path d="M756.75 877.96L660.71 924.81" stroke="#000a24" stroke-width="4" stroke-linecap="round" stroke-linejoin="round" opacity="1" fill="none"></path><path d="M452.69 357.07C458.54 332.74 483.82 324.03 505.49 324.03 513.78 324.03 522.28 325.2 529.82 327.54 547.99 333.06 558.07 347.34 558.19 357.6 558.19 357.6 553.83 361 547.35 361 543.1 361 538.75 359.51 538.97 359.74 536.41 366.95 535.56 374.28 532.27 378.11 530.35 380.44 527.59 381.61 523.87 381.61 518.45 381.61 513.04 378.96 513.65 379.93 512.61 381.29 517.01 395.13 507.83 404.67L507.72 404.77 507.62 404.67C507.51 404.56 493.91 393.4 482.23 393.4 477.87 393.4 474.15 395 471.5 398.18 469.16 400.95 468.1 404.35 468.42 407.96 469.48 419.75 484.25 432.08 484.46 432.18L484.67 432.39 484.46 432.61C474.9 440.15 453.76 440.79 453.76 440.79 453.76 440.79 447.06 376.09 452.69 357.07Z" fill="#010005" opacity="1" stroke-width="4" stroke="none"></path><path d="M559.36 409.98L549.16 410.3" stroke="#342012" stroke-width="4" stroke-linecap="round" stroke-linejoin="round" opacity="1" fill="none"></path><path d="M552.03 390.85C553.66 390.85 555 389.53 555 387.88 555 386.23 553.66 384.9 552.03 384.9 550.38 384.9 549.05 386.23 549.05 387.88 549.05 389.53 550.38 390.85 552.03 390.85Z" fill="#010005" opacity="1" stroke-width="4" stroke="none"></path><path d="M567.01 588.88C559.46 583.04 552.77 576.35 545.97 569.76" stroke="#3a3a3a" stroke-width="4" stroke-linecap="round" stroke-linejoin="round" opacity="1" fill="none"></path><path d="M611.31 515.37L632.02 540.97" stroke="#3a3a3a" stroke-width="4" stroke-linecap="round" stroke-linejoin="round" opacity="1" fill="none"></path><path d="M555.53 652.52H434.42L423.8 578.15" stroke="#3a3a3a" stroke-width="4" stroke-linecap="round" stroke-linejoin="round" opacity="1" fill="none"></path><path d="M572.96 790.42H660.71" stroke="#000a24" stroke-width="4" stroke-linecap="round" stroke-linejoin="round" opacity="1" fill="none"></path><path d="M524.94 447.16C516.44 443.76 510.06 440.79 510.06 440.79" stroke="#342012" stroke-width="4" stroke-linecap="round" stroke-linejoin="round" opacity="1" fill="none"></path><path d="M496.36 420.28L487.54 413.48" stroke="#342012" stroke-width="4" stroke-linecap="round" stroke-linejoin="round" opacity="1" fill="none"></path><path d="M521.32 1030.94V1030.73C521.11 1023.51 520.79 1016.39 520.79 1009.48L521.11 1009.27 666.98 1009.38C668.15 1011.5 668.89 1013.63 669.74 1015.96 671.55 1020.64 672.29 1025.63 672.29 1030.73V1030.94H521.32Z" fill="#000000" opacity="1" stroke-width="4" stroke="none"></path></g><g><path d="M463.77 790.17H491.95V977.57H463.77V790.17Z" fill="#231f20" opacity="1" stroke-width="4" stroke="none"></path><path d="M360.62 609.35H468.76C483.16 609.35 496.85 621.05 499.35 635.34L527.74 796.76H367.51L339.13 635.34C336.63 621.05 346.32 609.35 360.62 609.35Z" fill="#050505" opacity="1" stroke-width="4" stroke="none"></path><path d="M547.63 975.58H407.59C399.8 975.58 393.5 981.97 393.5 989.67 393.5 997.46 399.9 1003.76 407.59 1003.76H547.63C555.42 1003.76 561.72 997.36 561.72 989.67 561.72 981.87 555.32 975.58 547.63 975.58Z" fill="#050505" opacity="1" stroke-width="4" stroke="none"></path><path d="M547.63 1031.95C539.84 1031.95 533.53 1025.64 533.53 1017.85 533.53 1010.07 539.84 1003.76 547.63 1003.76 555.41 1003.76 561.72 1010.07 561.72 1017.85 561.72 1025.64 555.41 1031.95 547.63 1031.95Z" fill="#231f20" opacity="1" stroke-width="4" stroke="none"></path><path d="M477.56 1031.95C469.77 1031.95 463.47 1025.64 463.47 1017.85 463.47 1010.07 469.77 1003.76 477.56 1003.76 485.35 1003.76 491.65 1010.07 491.65 1017.85 491.65 1025.64 485.35 1031.95 477.56 1031.95Z" fill="#231f20" opacity="1" stroke-width="4" stroke="none"></path><path d="M407.49 1031.95C399.71 1031.95 393.4 1025.64 393.4 1017.85 393.4 1010.07 399.71 1003.76 407.49 1003.76 415.28 1003.76 421.59 1010.07 421.59 1017.85 421.59 1025.64 415.28 1031.95 407.49 1031.95Z" fill="#231f20" opacity="1" stroke-width="4" stroke="none"></path><path d="M520.64 755.98L527.84 796.76H367.61L364.62 779.37 520.64 755.98Z" fill="#000000" opacity="0.2" stroke-width="4" stroke="none"></path><path d="M647.38 785.67H504.25C496.45 785.67 490.15 792.06 490.15 799.76 490.15 807.56 496.55 813.85 504.25 813.85H647.38C655.17 813.85 661.47 807.46 661.47 799.76 661.47 792.06 655.07 785.67 647.38 785.67Z" fill="#050505" opacity="1" stroke-width="4" stroke="none"></path><path d="M526.44 785.67H368.21C360.42 785.67 354.12 792.06 354.12 799.76 354.12 807.56 360.52 813.85 368.21 813.85H526.44C534.23 813.85 540.53 807.46 540.53 799.76 540.53 792.06 534.23 785.67 526.44 785.67Z" fill="#050505" opacity="1" stroke-width="4" stroke="none"></path><path d="M525.44 783.67H366.21" stroke="#000000" stroke-width="4" stroke-linecap="round" stroke-linejoin="round" opacity="1" fill="none"></path></g></svg>